<mxfile host="app.diagrams.net" modified="2023-01-12T09:57:27.176Z" agent="5.0 (Windows NT 10.0; WOW64) AppleWebKit/537.36 (KHTML, like Gecko) Chrome/108.0.0.0 Safari/537.36" etag="FI1Mn5H86CUFSeKudX0e" version="20.8.4" type="github">
  <diagram id="C5RBs43oDa-KdzZeNtuy" name="Page-1">
    <mxGraphModel dx="737" dy="314" grid="1" gridSize="10" guides="1" tooltips="1" connect="1" arrows="1" fold="1" page="1" pageScale="1" pageWidth="827" pageHeight="1169" math="0" shadow="0">
      <root>
        <mxCell id="WIyWlLk6GJQsqaUBKTNV-0" />
        <mxCell id="WIyWlLk6GJQsqaUBKTNV-1" parent="WIyWlLk6GJQsqaUBKTNV-0" />
        <mxCell id="WIyWlLk6GJQsqaUBKTNV-2" value="" style="rounded=0;html=1;jettySize=auto;orthogonalLoop=1;fontSize=11;endArrow=block;endFill=0;endSize=8;strokeWidth=1;shadow=0;labelBackgroundColor=none;edgeStyle=orthogonalEdgeStyle;" parent="WIyWlLk6GJQsqaUBKTNV-1" source="WIyWlLk6GJQsqaUBKTNV-3" target="WIyWlLk6GJQsqaUBKTNV-6" edge="1">
          <mxGeometry relative="1" as="geometry" />
        </mxCell>
        <mxCell id="WIyWlLk6GJQsqaUBKTNV-3" value="Lamp doesn&#39;t work" style="rounded=1;whiteSpace=wrap;html=1;fontSize=12;glass=0;strokeWidth=1;shadow=0;" parent="WIyWlLk6GJQsqaUBKTNV-1" vertex="1">
          <mxGeometry x="160" y="80" width="120" height="40" as="geometry" />
        </mxCell>
        <mxCell id="WIyWlLk6GJQsqaUBKTNV-4" value="Yes" style="rounded=0;html=1;jettySize=auto;orthogonalLoop=1;fontSize=11;endArrow=block;endFill=0;endSize=8;strokeWidth=1;shadow=0;labelBackgroundColor=none;edgeStyle=orthogonalEdgeStyle;" parent="WIyWlLk6GJQsqaUBKTNV-1" source="WIyWlLk6GJQsqaUBKTNV-6" target="WIyWlLk6GJQsqaUBKTNV-10" edge="1">
          <mxGeometry y="20" relative="1" as="geometry">
            <mxPoint as="offset" />
          </mxGeometry>
        </mxCell>
        <mxCell id="WIyWlLk6GJQsqaUBKTNV-5" value="No" style="edgeStyle=orthogonalEdgeStyle;rounded=0;html=1;jettySize=auto;orthogonalLoop=1;fontSize=11;endArrow=block;endFill=0;endSize=8;strokeWidth=1;shadow=0;labelBackgroundColor=none;" parent="WIyWlLk6GJQsqaUBKTNV-1" source="WIyWlLk6GJQsqaUBKTNV-6" target="WIyWlLk6GJQsqaUBKTNV-7" edge="1">
          <mxGeometry y="10" relative="1" as="geometry">
            <mxPoint as="offset" />
          </mxGeometry>
        </mxCell>
        <mxCell id="WIyWlLk6GJQsqaUBKTNV-6" value="Lamp&lt;br&gt;plugged in?" style="rhombus;whiteSpace=wrap;html=1;shadow=0;fontFamily=Helvetica;fontSize=12;align=center;strokeWidth=1;spacing=6;spacingTop=-4;" parent="WIyWlLk6GJQsqaUBKTNV-1" vertex="1">
          <mxGeometry x="170" y="170" width="100" height="80" as="geometry" />
        </mxCell>
        <mxCell id="WIyWlLk6GJQsqaUBKTNV-7" value="Plug in lamp" style="rounded=1;whiteSpace=wrap;html=1;fontSize=12;glass=0;strokeWidth=1;shadow=0;" parent="WIyWlLk6GJQsqaUBKTNV-1" vertex="1">
          <mxGeometry x="320" y="190" width="120" height="40" as="geometry" />
        </mxCell>
        <mxCell id="WIyWlLk6GJQsqaUBKTNV-8" value="No" style="rounded=0;html=1;jettySize=auto;orthogonalLoop=1;fontSize=11;endArrow=block;endFill=0;endSize=8;strokeWidth=1;shadow=0;labelBackgroundColor=none;edgeStyle=orthogonalEdgeStyle;" parent="WIyWlLk6GJQsqaUBKTNV-1" source="WIyWlLk6GJQsqaUBKTNV-10" target="WIyWlLk6GJQsqaUBKTNV-11" edge="1">
          <mxGeometry x="0.3333" y="20" relative="1" as="geometry">
            <mxPoint as="offset" />
          </mxGeometry>
        </mxCell>
        <mxCell id="WIyWlLk6GJQsqaUBKTNV-9" value="Yes" style="edgeStyle=orthogonalEdgeStyle;rounded=0;html=1;jettySize=auto;orthogonalLoop=1;fontSize=11;endArrow=block;endFill=0;endSize=8;strokeWidth=1;shadow=0;labelBackgroundColor=none;" parent="WIyWlLk6GJQsqaUBKTNV-1" source="WIyWlLk6GJQsqaUBKTNV-10" target="WIyWlLk6GJQsqaUBKTNV-12" edge="1">
          <mxGeometry y="10" relative="1" as="geometry">
            <mxPoint as="offset" />
          </mxGeometry>
        </mxCell>
        <mxCell id="WIyWlLk6GJQsqaUBKTNV-10" value="Bulb&lt;br&gt;burned out?" style="rhombus;whiteSpace=wrap;html=1;shadow=0;fontFamily=Helvetica;fontSize=12;align=center;strokeWidth=1;spacing=6;spacingTop=-4;" parent="WIyWlLk6GJQsqaUBKTNV-1" vertex="1">
          <mxGeometry x="170" y="290" width="100" height="80" as="geometry" />
        </mxCell>
        <mxCell id="WIyWlLk6GJQsqaUBKTNV-11" value="Repair Lamp" style="rounded=1;whiteSpace=wrap;html=1;fontSize=12;glass=0;strokeWidth=1;shadow=0;" parent="WIyWlLk6GJQsqaUBKTNV-1" vertex="1">
          <mxGeometry x="160" y="430" width="120" height="40" as="geometry" />
        </mxCell>
        <mxCell id="WIyWlLk6GJQsqaUBKTNV-12" value="Replace Bulb" style="rounded=1;whiteSpace=wrap;html=1;fontSize=12;glass=0;strokeWidth=1;shadow=0;" parent="WIyWlLk6GJQsqaUBKTNV-1" vertex="1">
          <mxGeometry x="320" y="310" width="120" height="40" as="geometry" />
        </mxCell>
        <mxCell id="3fiy4IHNfEnPSykZ1ssT-0" value="" style="rounded=1;whiteSpace=wrap;html=1;fillColor=#E6E6E6;fontStyle=1" vertex="1" parent="WIyWlLk6GJQsqaUBKTNV-1">
          <mxGeometry x="360" y="360" width="50" height="80" as="geometry" />
        </mxCell>
        <mxCell id="3fiy4IHNfEnPSykZ1ssT-1" value="" style="rounded=1;whiteSpace=wrap;html=1;fillColor=#E6E6E6;fontStyle=1" vertex="1" parent="WIyWlLk6GJQsqaUBKTNV-1">
          <mxGeometry x="360" y="280" width="50" height="80" as="geometry" />
        </mxCell>
        <mxCell id="3fiy4IHNfEnPSykZ1ssT-2" value="" style="shape=cylinder3;whiteSpace=wrap;html=1;boundedLbl=1;backgroundOutline=1;size=15;fontStyle=1;fillColor=#D5E8D4;" vertex="1" parent="WIyWlLk6GJQsqaUBKTNV-1">
          <mxGeometry x="140" y="130" width="87" height="310" as="geometry" />
        </mxCell>
        <mxCell id="3fiy4IHNfEnPSykZ1ssT-3" value="" style="rounded=1;whiteSpace=wrap;html=1;fillColor=#E6E6E6;fontStyle=1" vertex="1" parent="WIyWlLk6GJQsqaUBKTNV-1">
          <mxGeometry x="360" y="160" width="50" height="120" as="geometry" />
        </mxCell>
        <mxCell id="3fiy4IHNfEnPSykZ1ssT-4" value="" style="endArrow=classic;html=1;exitX=1;exitY=0.5;exitDx=0;exitDy=0;exitPerimeter=0;entryX=0.025;entryY=0.313;entryDx=0;entryDy=0;entryPerimeter=0;fontStyle=1" edge="1" parent="WIyWlLk6GJQsqaUBKTNV-1">
          <mxGeometry width="50" height="50" relative="1" as="geometry">
            <mxPoint x="190" y="239" as="sourcePoint" />
            <mxPoint x="361" y="239.12" as="targetPoint" />
          </mxGeometry>
        </mxCell>
        <mxCell id="3fiy4IHNfEnPSykZ1ssT-5" value="IA&amp;nbsp;(RFM&amp;nbsp; WorldWise)" style="text;html=1;strokeColor=none;fillColor=none;align=center;verticalAlign=middle;whiteSpace=wrap;rounded=0;fontStyle=1" vertex="1" parent="WIyWlLk6GJQsqaUBKTNV-1">
          <mxGeometry x="150" y="130" width="69" height="30" as="geometry" />
        </mxCell>
        <mxCell id="3fiy4IHNfEnPSykZ1ssT-6" value="UM" style="text;html=1;strokeColor=none;fillColor=none;align=center;verticalAlign=middle;whiteSpace=wrap;rounded=0;rotation=0;fontStyle=1" vertex="1" parent="WIyWlLk6GJQsqaUBKTNV-1">
          <mxGeometry x="490" y="187" width="40" height="20" as="geometry" />
        </mxCell>
        <mxCell id="3fiy4IHNfEnPSykZ1ssT-7" value="NR1 (PLM)" style="text;html=1;strokeColor=none;fillColor=none;align=center;verticalAlign=middle;whiteSpace=wrap;rounded=0;fontStyle=1" vertex="1" parent="WIyWlLk6GJQsqaUBKTNV-1">
          <mxGeometry x="601" y="130" width="49" height="30" as="geometry" />
        </mxCell>
        <mxCell id="3fiy4IHNfEnPSykZ1ssT-8" value="SQL Connection" style="text;html=1;strokeColor=none;fillColor=#99FF99;align=center;verticalAlign=middle;whiteSpace=wrap;rounded=0;rotation=90;fontStyle=1" vertex="1" parent="WIyWlLk6GJQsqaUBKTNV-1">
          <mxGeometry x="229.88" y="307.38" width="101.75" height="21.5" as="geometry" />
        </mxCell>
        <mxCell id="3fiy4IHNfEnPSykZ1ssT-9" value="" style="shape=cylinder3;whiteSpace=wrap;html=1;boundedLbl=1;backgroundOutline=1;size=15;fontStyle=1" vertex="1" parent="WIyWlLk6GJQsqaUBKTNV-1">
          <mxGeometry x="150" y="280" width="73" height="70" as="geometry" />
        </mxCell>
        <mxCell id="3fiy4IHNfEnPSykZ1ssT-10" value="" style="shape=cylinder3;whiteSpace=wrap;html=1;boundedLbl=1;backgroundOutline=1;size=15;fontStyle=1" vertex="1" parent="WIyWlLk6GJQsqaUBKTNV-1">
          <mxGeometry x="150" y="200" width="73" height="70" as="geometry" />
        </mxCell>
        <mxCell id="3fiy4IHNfEnPSykZ1ssT-11" value="" style="endArrow=classic;html=1;fontStyle=1" edge="1" parent="WIyWlLk6GJQsqaUBKTNV-1">
          <mxGeometry width="50" height="50" relative="1" as="geometry">
            <mxPoint x="223" y="315" as="sourcePoint" />
            <mxPoint x="360" y="315" as="targetPoint" />
          </mxGeometry>
        </mxCell>
        <mxCell id="3fiy4IHNfEnPSykZ1ssT-12" value="Staging Area" style="text;html=1;strokeColor=none;fillColor=none;align=center;verticalAlign=middle;whiteSpace=wrap;rounded=0;fontStyle=1" vertex="1" parent="WIyWlLk6GJQsqaUBKTNV-1">
          <mxGeometry x="143" y="170" width="80" height="20" as="geometry" />
        </mxCell>
        <mxCell id="3fiy4IHNfEnPSykZ1ssT-13" value="Metadata" style="text;html=1;strokeColor=none;fillColor=none;align=center;verticalAlign=middle;whiteSpace=wrap;rounded=0;fontStyle=1" vertex="1" parent="WIyWlLk6GJQsqaUBKTNV-1">
          <mxGeometry x="153" y="230" width="70" height="20" as="geometry" />
        </mxCell>
        <mxCell id="3fiy4IHNfEnPSykZ1ssT-14" value="SDS PDF (BLOB)" style="text;html=1;strokeColor=none;fillColor=none;align=center;verticalAlign=middle;whiteSpace=wrap;rounded=0;fontStyle=1" vertex="1" parent="WIyWlLk6GJQsqaUBKTNV-1">
          <mxGeometry x="152" y="320" width="70" height="20" as="geometry" />
        </mxCell>
        <mxCell id="3fiy4IHNfEnPSykZ1ssT-15" value="" style="shape=cylinder3;whiteSpace=wrap;html=1;boundedLbl=1;backgroundOutline=1;size=15;fontStyle=1;fillColor=#D4E1F5;" vertex="1" parent="WIyWlLk6GJQsqaUBKTNV-1">
          <mxGeometry x="580" y="130" width="90" height="310" as="geometry" />
        </mxCell>
        <mxCell id="3fiy4IHNfEnPSykZ1ssT-16" value="" style="shape=cylinder3;whiteSpace=wrap;html=1;boundedLbl=1;backgroundOutline=1;size=15;fontStyle=1" vertex="1" parent="WIyWlLk6GJQsqaUBKTNV-1">
          <mxGeometry x="584" y="280" width="76" height="70" as="geometry" />
        </mxCell>
        <mxCell id="3fiy4IHNfEnPSykZ1ssT-17" value="" style="shape=cylinder3;whiteSpace=wrap;html=1;boundedLbl=1;backgroundOutline=1;size=15;fontStyle=1" vertex="1" parent="WIyWlLk6GJQsqaUBKTNV-1">
          <mxGeometry x="584" y="200" width="76" height="70" as="geometry" />
        </mxCell>
        <mxCell id="3fiy4IHNfEnPSykZ1ssT-18" value="Staging Area" style="text;html=1;strokeColor=none;fillColor=none;align=center;verticalAlign=middle;whiteSpace=wrap;rounded=0;fontStyle=1" vertex="1" parent="WIyWlLk6GJQsqaUBKTNV-1">
          <mxGeometry x="584" y="170" width="80" height="20" as="geometry" />
        </mxCell>
        <mxCell id="3fiy4IHNfEnPSykZ1ssT-19" style="edgeStyle=orthogonalEdgeStyle;rounded=0;orthogonalLoop=1;jettySize=auto;html=1;exitX=1;exitY=0.25;exitDx=0;exitDy=0;entryX=1;entryY=0;entryDx=0;entryDy=24.25;entryPerimeter=0;strokeWidth=2;fillColor=#1ba1e2;strokeColor=#006EAF;" edge="1" parent="WIyWlLk6GJQsqaUBKTNV-1" source="3fiy4IHNfEnPSykZ1ssT-20" target="3fiy4IHNfEnPSykZ1ssT-60">
          <mxGeometry relative="1" as="geometry" />
        </mxCell>
        <mxCell id="3fiy4IHNfEnPSykZ1ssT-20" value="Metadata" style="text;html=1;strokeColor=none;fillColor=none;align=center;verticalAlign=middle;whiteSpace=wrap;rounded=0;fontStyle=1" vertex="1" parent="WIyWlLk6GJQsqaUBKTNV-1">
          <mxGeometry x="589" y="230" width="70" height="20" as="geometry" />
        </mxCell>
        <mxCell id="3fiy4IHNfEnPSykZ1ssT-21" value="SDS PDF (BLOB)" style="text;html=1;strokeColor=none;fillColor=none;align=center;verticalAlign=middle;whiteSpace=wrap;rounded=0;fontStyle=1" vertex="1" parent="WIyWlLk6GJQsqaUBKTNV-1">
          <mxGeometry x="588" y="320" width="70" height="20" as="geometry" />
        </mxCell>
        <mxCell id="3fiy4IHNfEnPSykZ1ssT-22" value="Table-3" style="text;html=1;strokeColor=none;fillColor=none;align=center;verticalAlign=middle;whiteSpace=wrap;rounded=0;fontStyle=1" vertex="1" parent="WIyWlLk6GJQsqaUBKTNV-1">
          <mxGeometry x="163.5" y="210" width="40" height="20" as="geometry" />
        </mxCell>
        <mxCell id="3fiy4IHNfEnPSykZ1ssT-23" value="Table-2" style="text;html=1;strokeColor=none;fillColor=none;align=center;verticalAlign=middle;whiteSpace=wrap;rounded=0;fontStyle=1" vertex="1" parent="WIyWlLk6GJQsqaUBKTNV-1">
          <mxGeometry x="163" y="290" width="40" height="20" as="geometry" />
        </mxCell>
        <mxCell id="3fiy4IHNfEnPSykZ1ssT-24" value="Table-3" style="text;html=1;strokeColor=none;fillColor=none;align=center;verticalAlign=middle;whiteSpace=wrap;rounded=0;fontStyle=1" vertex="1" parent="WIyWlLk6GJQsqaUBKTNV-1">
          <mxGeometry x="605" y="207" width="40" height="20" as="geometry" />
        </mxCell>
        <mxCell id="3fiy4IHNfEnPSykZ1ssT-25" value="Table-2" style="text;html=1;strokeColor=none;fillColor=none;align=center;verticalAlign=middle;whiteSpace=wrap;rounded=0;fontStyle=1" vertex="1" parent="WIyWlLk6GJQsqaUBKTNV-1">
          <mxGeometry x="604" y="285" width="40" height="20" as="geometry" />
        </mxCell>
        <mxCell id="3fiy4IHNfEnPSykZ1ssT-26" value="" style="rounded=1;whiteSpace=wrap;html=1;fillColor=#E6E6E6;fontStyle=1" vertex="1" parent="WIyWlLk6GJQsqaUBKTNV-1">
          <mxGeometry x="360" y="130" width="170" height="30" as="geometry" />
        </mxCell>
        <mxCell id="3fiy4IHNfEnPSykZ1ssT-27" value="webMethods" style="text;html=1;strokeColor=none;fillColor=none;align=center;verticalAlign=middle;whiteSpace=wrap;rounded=0;fontStyle=1" vertex="1" parent="WIyWlLk6GJQsqaUBKTNV-1">
          <mxGeometry x="375" y="135" width="90" height="20" as="geometry" />
        </mxCell>
        <mxCell id="3fiy4IHNfEnPSykZ1ssT-28" value="" style="rounded=1;whiteSpace=wrap;html=1;fillColor=#E6E6E6;fontStyle=1" vertex="1" parent="WIyWlLk6GJQsqaUBKTNV-1">
          <mxGeometry x="490" y="160" width="40" height="70" as="geometry" />
        </mxCell>
        <mxCell id="3fiy4IHNfEnPSykZ1ssT-29" value="IS" style="text;html=1;strokeColor=none;fillColor=none;align=center;verticalAlign=middle;whiteSpace=wrap;rounded=0;rotation=0;fontStyle=1" vertex="1" parent="WIyWlLk6GJQsqaUBKTNV-1">
          <mxGeometry x="370" y="172" width="30" height="30" as="geometry" />
        </mxCell>
        <mxCell id="3fiy4IHNfEnPSykZ1ssT-30" value="" style="rounded=1;whiteSpace=wrap;html=1;rotation=90;fontStyle=1" vertex="1" parent="WIyWlLk6GJQsqaUBKTNV-1">
          <mxGeometry x="425" y="180" width="45" height="10" as="geometry" />
        </mxCell>
        <mxCell id="3fiy4IHNfEnPSykZ1ssT-31" value="chunk" style="edgeStyle=orthogonalEdgeStyle;html=1;align=left;spacingLeft=2;endArrow=block;rounded=0;fillColor=#dae8fc;strokeColor=#6c8ebf;strokeWidth=2;fontStyle=1" edge="1" parent="WIyWlLk6GJQsqaUBKTNV-1">
          <mxGeometry x="0.6542" y="-20" relative="1" as="geometry">
            <mxPoint x="409" y="170" as="sourcePoint" />
            <Array as="points">
              <mxPoint x="493" y="170" />
              <mxPoint x="493" y="210" />
            </Array>
            <mxPoint x="409" y="210" as="targetPoint" />
            <mxPoint as="offset" />
          </mxGeometry>
        </mxCell>
        <mxCell id="3fiy4IHNfEnPSykZ1ssT-32" value="" style="endArrow=classic;html=1;exitX=1;exitY=0.5;exitDx=0;exitDy=0;exitPerimeter=0;entryX=0.025;entryY=0.313;entryDx=0;entryDy=0;entryPerimeter=0;fontStyle=1" edge="1" parent="WIyWlLk6GJQsqaUBKTNV-1">
          <mxGeometry width="50" height="50" relative="1" as="geometry">
            <mxPoint x="411" y="240" as="sourcePoint" />
            <mxPoint x="582" y="240.12" as="targetPoint" />
          </mxGeometry>
        </mxCell>
        <mxCell id="3fiy4IHNfEnPSykZ1ssT-33" value="" style="endArrow=classic;html=1;entryX=0;entryY=0.613;entryDx=0;entryDy=0;entryPerimeter=0;fontStyle=1" edge="1" parent="WIyWlLk6GJQsqaUBKTNV-1">
          <mxGeometry width="50" height="50" relative="1" as="geometry">
            <mxPoint x="408" y="315" as="sourcePoint" />
            <mxPoint x="581" y="315.03" as="targetPoint" />
          </mxGeometry>
        </mxCell>
        <mxCell id="3fiy4IHNfEnPSykZ1ssT-34" value="RFC - BAPI" style="text;html=1;strokeColor=none;fillColor=#99FF99;align=center;verticalAlign=middle;whiteSpace=wrap;rounded=0;rotation=90;fontStyle=1" vertex="1" parent="WIyWlLk6GJQsqaUBKTNV-1">
          <mxGeometry x="460" y="305" width="71" height="20" as="geometry" />
        </mxCell>
        <mxCell id="3fiy4IHNfEnPSykZ1ssT-35" value="" style="shape=cylinder3;whiteSpace=wrap;html=1;boundedLbl=1;backgroundOutline=1;size=15;fontStyle=1" vertex="1" parent="WIyWlLk6GJQsqaUBKTNV-1">
          <mxGeometry x="149" y="360" width="73" height="70" as="geometry" />
        </mxCell>
        <mxCell id="3fiy4IHNfEnPSykZ1ssT-36" value="" style="shape=cylinder3;whiteSpace=wrap;html=1;boundedLbl=1;backgroundOutline=1;size=15;fontStyle=1" vertex="1" parent="WIyWlLk6GJQsqaUBKTNV-1">
          <mxGeometry x="587" y="360" width="73" height="70" as="geometry" />
        </mxCell>
        <mxCell id="3fiy4IHNfEnPSykZ1ssT-37" value="" style="endArrow=classic;html=1;exitX=-0.026;exitY=0.874;exitDx=0;exitDy=0;exitPerimeter=0;fontStyle=1" edge="1" parent="WIyWlLk6GJQsqaUBKTNV-1" source="3fiy4IHNfEnPSykZ1ssT-15">
          <mxGeometry width="50" height="50" relative="1" as="geometry">
            <mxPoint x="580" y="394.5" as="sourcePoint" />
            <mxPoint x="411" y="400" as="targetPoint" />
          </mxGeometry>
        </mxCell>
        <mxCell id="3fiy4IHNfEnPSykZ1ssT-38" value="" style="endArrow=classic;html=1;entryX=0.973;entryY=0.495;entryDx=0;entryDy=0;entryPerimeter=0;fontStyle=1" edge="1" parent="WIyWlLk6GJQsqaUBKTNV-1">
          <mxGeometry width="50" height="50" relative="1" as="geometry">
            <mxPoint x="360" y="399" as="sourcePoint" />
            <mxPoint x="220.029" y="398.65" as="targetPoint" />
          </mxGeometry>
        </mxCell>
        <mxCell id="3fiy4IHNfEnPSykZ1ssT-39" value="" style="shape=mxgraph.bpmn.shape;html=1;verticalLabelPosition=bottom;labelBackgroundColor=#ffffff;verticalAlign=top;align=center;perimeter=ellipsePerimeter;outlineConnect=0;outline=boundInt;symbol=timer;fillColor=#E6E6E6;fontStyle=1" vertex="1" parent="WIyWlLk6GJQsqaUBKTNV-1">
          <mxGeometry x="370" y="225" width="30" height="30" as="geometry" />
        </mxCell>
        <mxCell id="3fiy4IHNfEnPSykZ1ssT-40" value="" style="shape=mxgraph.bpmn.shape;html=1;verticalLabelPosition=bottom;labelBackgroundColor=#ffffff;verticalAlign=top;align=center;perimeter=ellipsePerimeter;outlineConnect=0;outline=boundInt;symbol=timer;fillColor=#E6E6E6;fontStyle=1" vertex="1" parent="WIyWlLk6GJQsqaUBKTNV-1">
          <mxGeometry x="370" y="385" width="30" height="30" as="geometry" />
        </mxCell>
        <mxCell id="3fiy4IHNfEnPSykZ1ssT-41" value="" style="shape=mxgraph.bpmn.shape;html=1;verticalLabelPosition=bottom;labelBackgroundColor=#ffffff;verticalAlign=top;align=center;perimeter=ellipsePerimeter;outlineConnect=0;outline=boundInt;symbol=timer;fillColor=#E6E6E6;fontStyle=1" vertex="1" parent="WIyWlLk6GJQsqaUBKTNV-1">
          <mxGeometry x="370" y="300" width="30" height="30" as="geometry" />
        </mxCell>
        <mxCell id="3fiy4IHNfEnPSykZ1ssT-42" value="Primary Data" style="text;html=1;strokeColor=none;fillColor=none;align=center;verticalAlign=middle;whiteSpace=wrap;rounded=0;fontStyle=1" vertex="1" parent="WIyWlLk6GJQsqaUBKTNV-1">
          <mxGeometry x="590.5" y="400" width="70" height="20" as="geometry" />
        </mxCell>
        <mxCell id="3fiy4IHNfEnPSykZ1ssT-43" value="Primary Data" style="text;html=1;strokeColor=none;fillColor=none;align=center;verticalAlign=middle;whiteSpace=wrap;rounded=0;fontStyle=1" vertex="1" parent="WIyWlLk6GJQsqaUBKTNV-1">
          <mxGeometry x="151.5" y="400" width="70" height="20" as="geometry" />
        </mxCell>
        <mxCell id="3fiy4IHNfEnPSykZ1ssT-44" value="Tables-1" style="text;html=1;strokeColor=none;fillColor=none;align=center;verticalAlign=middle;whiteSpace=wrap;rounded=0;fontStyle=1" vertex="1" parent="WIyWlLk6GJQsqaUBKTNV-1">
          <mxGeometry x="163.5" y="370" width="40" height="20" as="geometry" />
        </mxCell>
        <mxCell id="3fiy4IHNfEnPSykZ1ssT-45" value="Tables-1" style="text;html=1;strokeColor=none;fillColor=none;align=center;verticalAlign=middle;whiteSpace=wrap;rounded=0;fontStyle=1" vertex="1" parent="WIyWlLk6GJQsqaUBKTNV-1">
          <mxGeometry x="603.5" y="370" width="40" height="20" as="geometry" />
        </mxCell>
        <mxCell id="3fiy4IHNfEnPSykZ1ssT-46" value="" style="shape=cylinder3;whiteSpace=wrap;html=1;boundedLbl=1;backgroundOutline=1;size=15;fontStyle=1;fillColor=#ffe6cc;strokeColor=#d79b00;" vertex="1" parent="WIyWlLk6GJQsqaUBKTNV-1">
          <mxGeometry x="350" y="477" width="70" height="70" as="geometry" />
        </mxCell>
        <mxCell id="3fiy4IHNfEnPSykZ1ssT-47" value="Error" style="text;html=1;strokeColor=none;fillColor=none;align=center;verticalAlign=middle;whiteSpace=wrap;rounded=0;fontStyle=1;fontColor=#FF3333;" vertex="1" parent="WIyWlLk6GJQsqaUBKTNV-1">
          <mxGeometry x="365" y="480" width="40" height="20" as="geometry" />
        </mxCell>
        <mxCell id="3fiy4IHNfEnPSykZ1ssT-48" value="" style="endArrow=classic;html=1;fontStyle=1;fillColor=#e51400;strokeColor=#B20000;strokeWidth=2;" edge="1" parent="WIyWlLk6GJQsqaUBKTNV-1">
          <mxGeometry width="50" height="50" relative="1" as="geometry">
            <mxPoint x="385" y="440" as="sourcePoint" />
            <mxPoint x="384.5" y="479" as="targetPoint" />
          </mxGeometry>
        </mxCell>
        <mxCell id="3fiy4IHNfEnPSykZ1ssT-49" value="&lt;font style=&quot;font-size: 20px&quot;&gt;1&lt;/font&gt;" style="text;html=1;strokeColor=none;fillColor=none;align=center;verticalAlign=middle;whiteSpace=wrap;rounded=1;strokeWidth=2;opacity=0;" vertex="1" parent="WIyWlLk6GJQsqaUBKTNV-1">
          <mxGeometry x="453" y="375" width="39" height="30" as="geometry" />
        </mxCell>
        <mxCell id="3fiy4IHNfEnPSykZ1ssT-50" value="&lt;font style=&quot;font-size: 20px&quot;&gt;1&lt;/font&gt;" style="text;html=1;strokeColor=none;fillColor=none;align=center;verticalAlign=middle;whiteSpace=wrap;rounded=1;strokeWidth=2;opacity=0;" vertex="1" parent="WIyWlLk6GJQsqaUBKTNV-1">
          <mxGeometry x="288.26" y="374" width="39" height="30" as="geometry" />
        </mxCell>
        <mxCell id="3fiy4IHNfEnPSykZ1ssT-51" value="&lt;font style=&quot;font-size: 20px&quot;&gt;2&lt;/font&gt;" style="text;html=1;strokeColor=none;fillColor=none;align=center;verticalAlign=middle;whiteSpace=wrap;rounded=1;strokeWidth=2;opacity=0;" vertex="1" parent="WIyWlLk6GJQsqaUBKTNV-1">
          <mxGeometry x="451" y="290" width="39" height="30" as="geometry" />
        </mxCell>
        <mxCell id="3fiy4IHNfEnPSykZ1ssT-52" value="&lt;font style=&quot;font-size: 20px&quot;&gt;3&lt;/font&gt;" style="text;html=1;strokeColor=none;fillColor=none;align=center;verticalAlign=middle;whiteSpace=wrap;rounded=1;strokeWidth=2;opacity=0;" vertex="1" parent="WIyWlLk6GJQsqaUBKTNV-1">
          <mxGeometry x="451" y="216" width="39" height="30" as="geometry" />
        </mxCell>
        <mxCell id="3fiy4IHNfEnPSykZ1ssT-53" value="&lt;font style=&quot;font-size: 20px&quot;&gt;2&lt;/font&gt;" style="text;html=1;strokeColor=none;fillColor=none;align=center;verticalAlign=middle;whiteSpace=wrap;rounded=1;strokeWidth=2;opacity=0;" vertex="1" parent="WIyWlLk6GJQsqaUBKTNV-1">
          <mxGeometry x="290" y="290" width="39" height="30" as="geometry" />
        </mxCell>
        <mxCell id="3fiy4IHNfEnPSykZ1ssT-54" value="&lt;font style=&quot;font-size: 20px&quot;&gt;3&lt;/font&gt;" style="text;html=1;strokeColor=none;fillColor=none;align=center;verticalAlign=middle;whiteSpace=wrap;rounded=1;strokeWidth=2;opacity=0;" vertex="1" parent="WIyWlLk6GJQsqaUBKTNV-1">
          <mxGeometry x="288" y="214" width="39" height="30" as="geometry" />
        </mxCell>
        <mxCell id="3fiy4IHNfEnPSykZ1ssT-55" value="" style="endArrow=none;html=1;strokeWidth=2;fillColor=#F19C99;" edge="1" parent="WIyWlLk6GJQsqaUBKTNV-1">
          <mxGeometry width="50" height="50" relative="1" as="geometry">
            <mxPoint x="280" y="400" as="sourcePoint" />
            <mxPoint x="280.26" y="370" as="targetPoint" />
          </mxGeometry>
        </mxCell>
        <mxCell id="3fiy4IHNfEnPSykZ1ssT-56" value="" style="endArrow=none;html=1;strokeWidth=2;fillColor=#F19C99;" edge="1" parent="WIyWlLk6GJQsqaUBKTNV-1">
          <mxGeometry width="50" height="50" relative="1" as="geometry">
            <mxPoint x="280.26" y="270" as="sourcePoint" />
            <mxPoint x="280.52" y="240" as="targetPoint" />
          </mxGeometry>
        </mxCell>
        <mxCell id="3fiy4IHNfEnPSykZ1ssT-57" value="" style="endArrow=none;html=1;strokeWidth=2;fillColor=#F19C99;" edge="1" parent="WIyWlLk6GJQsqaUBKTNV-1">
          <mxGeometry width="50" height="50" relative="1" as="geometry">
            <mxPoint x="495" y="399" as="sourcePoint" />
            <mxPoint x="495.26" y="351" as="targetPoint" />
          </mxGeometry>
        </mxCell>
        <mxCell id="3fiy4IHNfEnPSykZ1ssT-58" value="" style="endArrow=none;html=1;strokeWidth=2;fillColor=#F19C99;" edge="1" parent="WIyWlLk6GJQsqaUBKTNV-1">
          <mxGeometry width="50" height="50" relative="1" as="geometry">
            <mxPoint x="495" y="286" as="sourcePoint" />
            <mxPoint x="495" y="238" as="targetPoint" />
          </mxGeometry>
        </mxCell>
        <mxCell id="3fiy4IHNfEnPSykZ1ssT-59" value="" style="shape=cylinder3;whiteSpace=wrap;html=1;boundedLbl=1;backgroundOutline=1;size=15;fontStyle=1;fillColor=#D5E8D4;" vertex="1" parent="WIyWlLk6GJQsqaUBKTNV-1">
          <mxGeometry x="140" y="480" width="87" height="70" as="geometry" />
        </mxCell>
        <mxCell id="3fiy4IHNfEnPSykZ1ssT-60" value="" style="shape=cylinder3;whiteSpace=wrap;html=1;boundedLbl=1;backgroundOutline=1;size=15;fontStyle=1;fillColor=#D4E1F5;" vertex="1" parent="WIyWlLk6GJQsqaUBKTNV-1">
          <mxGeometry x="584" y="480" width="86" height="67" as="geometry" />
        </mxCell>
        <mxCell id="3fiy4IHNfEnPSykZ1ssT-61" value="NR1 (PLM)" style="text;html=1;strokeColor=none;fillColor=none;align=center;verticalAlign=middle;whiteSpace=wrap;rounded=0;fontStyle=1" vertex="1" parent="WIyWlLk6GJQsqaUBKTNV-1">
          <mxGeometry x="602.5" y="510" width="49" height="30" as="geometry" />
        </mxCell>
        <mxCell id="3fiy4IHNfEnPSykZ1ssT-62" value="IA&amp;nbsp;(RFM&amp;nbsp; WorldWise)" style="text;html=1;strokeColor=none;fillColor=none;align=center;verticalAlign=middle;whiteSpace=wrap;rounded=0;fontStyle=1" vertex="1" parent="WIyWlLk6GJQsqaUBKTNV-1">
          <mxGeometry x="148.5" y="517" width="69" height="30" as="geometry" />
        </mxCell>
        <mxCell id="3fiy4IHNfEnPSykZ1ssT-63" value="" style="shape=requiredInterface;html=1;verticalLabelPosition=bottom;rounded=1;strokeColor=#E6E6E6;strokeWidth=2;fillColor=#99FF99;opacity=0;" vertex="1" parent="WIyWlLk6GJQsqaUBKTNV-1">
          <mxGeometry x="430" y="300" width="10" height="20" as="geometry" />
        </mxCell>
        <mxCell id="3fiy4IHNfEnPSykZ1ssT-64" value="" style="endArrow=none;html=1;strokeWidth=2;fillColor=#1ba1e2;strokeColor=#006EAF;" edge="1" parent="WIyWlLk6GJQsqaUBKTNV-1">
          <mxGeometry width="50" height="50" relative="1" as="geometry">
            <mxPoint x="659" y="317.63" as="sourcePoint" />
            <mxPoint x="691" y="318" as="targetPoint" />
          </mxGeometry>
        </mxCell>
        <mxCell id="3fiy4IHNfEnPSykZ1ssT-65" value="" style="endArrow=classic;html=1;entryX=0.5;entryY=1;entryDx=0;entryDy=0;entryPerimeter=0;strokeWidth=2;fillColor=#1ba1e2;strokeColor=#006EAF;" edge="1" parent="WIyWlLk6GJQsqaUBKTNV-1" target="3fiy4IHNfEnPSykZ1ssT-36">
          <mxGeometry width="50" height="50" relative="1" as="geometry">
            <mxPoint x="624" y="480" as="sourcePoint" />
            <mxPoint x="632" y="430" as="targetPoint" />
          </mxGeometry>
        </mxCell>
        <mxCell id="3fiy4IHNfEnPSykZ1ssT-66" value="" style="endArrow=classic;html=1;entryX=0.5;entryY=1;entryDx=0;entryDy=0;entryPerimeter=0;strokeWidth=2;fillColor=#0050ef;strokeColor=#001DBC;" edge="1" parent="WIyWlLk6GJQsqaUBKTNV-1" target="3fiy4IHNfEnPSykZ1ssT-2">
          <mxGeometry width="50" height="50" relative="1" as="geometry">
            <mxPoint x="184" y="480" as="sourcePoint" />
            <mxPoint x="229.88" y="430" as="targetPoint" />
          </mxGeometry>
        </mxCell>
        <mxCell id="3fiy4IHNfEnPSykZ1ssT-67" value="&lt;strong&gt;MAIN&lt;/strong&gt;" style="text;html=1;strokeColor=none;fillColor=none;align=center;verticalAlign=middle;whiteSpace=wrap;rounded=0;" vertex="1" parent="WIyWlLk6GJQsqaUBKTNV-1">
          <mxGeometry x="166" y="490" width="40" height="20" as="geometry" />
        </mxCell>
        <mxCell id="3fiy4IHNfEnPSykZ1ssT-68" value="&lt;strong&gt;MAIN&lt;/strong&gt;" style="text;html=1;strokeColor=none;fillColor=none;align=center;verticalAlign=middle;whiteSpace=wrap;rounded=0;" vertex="1" parent="WIyWlLk6GJQsqaUBKTNV-1">
          <mxGeometry x="605" y="490" width="40" height="20" as="geometry" />
        </mxCell>
        <mxCell id="3fiy4IHNfEnPSykZ1ssT-69" value="&lt;strong&gt;webMethods&lt;/strong&gt;" style="text;html=1;strokeColor=none;fillColor=none;align=center;verticalAlign=middle;whiteSpace=wrap;rounded=0;" vertex="1" parent="WIyWlLk6GJQsqaUBKTNV-1">
          <mxGeometry x="367" y="515" width="40" height="20" as="geometry" />
        </mxCell>
        <mxCell id="3fiy4IHNfEnPSykZ1ssT-70" value="&lt;strong&gt;Transitent&lt;/strong&gt;" style="text;html=1;strokeColor=none;fillColor=none;align=center;verticalAlign=middle;whiteSpace=wrap;rounded=0;" vertex="1" parent="WIyWlLk6GJQsqaUBKTNV-1">
          <mxGeometry x="400" y="450" width="40" height="20" as="geometry" />
        </mxCell>
        <mxCell id="3fiy4IHNfEnPSykZ1ssT-71" value="" style="shape=ext;rounded=1;html=1;whiteSpace=wrap;dashed=1;fillColor=none;strokeColor=#3333FF;strokeWidth=1;" vertex="1" parent="WIyWlLk6GJQsqaUBKTNV-1">
          <mxGeometry x="130" y="361" width="550" height="90" as="geometry" />
        </mxCell>
        <mxCell id="3fiy4IHNfEnPSykZ1ssT-72" value="&lt;strong&gt;&lt;font color=&quot;#ff3333&quot;&gt;Future Scope&lt;/font&gt;&lt;/strong&gt;" style="text;html=1;strokeColor=none;fillColor=none;align=center;verticalAlign=middle;whiteSpace=wrap;rounded=0;" vertex="1" parent="WIyWlLk6GJQsqaUBKTNV-1">
          <mxGeometry x="320" y="420" width="140" height="20" as="geometry" />
        </mxCell>
        <mxCell id="3fiy4IHNfEnPSykZ1ssT-73" value="" style="shape=ext;rounded=1;html=1;whiteSpace=wrap;dashed=1;fillColor=none;strokeWidth=1;strokeColor=#009900;fontSize=8;" vertex="1" parent="WIyWlLk6GJQsqaUBKTNV-1">
          <mxGeometry x="113" y="109" width="594" height="250" as="geometry" />
        </mxCell>
        <mxCell id="3fiy4IHNfEnPSykZ1ssT-74" value="&lt;strong&gt;&lt;font&gt;Current Scope&lt;/font&gt;&lt;/strong&gt;" style="text;html=1;strokeColor=none;fillColor=none;align=center;verticalAlign=middle;whiteSpace=wrap;rounded=0;fontColor=#009900;" vertex="1" parent="WIyWlLk6GJQsqaUBKTNV-1">
          <mxGeometry x="330" y="108" width="140" height="20" as="geometry" />
        </mxCell>
        <mxCell id="3fiy4IHNfEnPSykZ1ssT-75" value="" style="endArrow=classic;html=1;strokeColor=#0000CC;" edge="1" parent="WIyWlLk6GJQsqaUBKTNV-1">
          <mxGeometry width="50" height="50" relative="1" as="geometry">
            <mxPoint x="223" y="419" as="sourcePoint" />
            <mxPoint x="360" y="419" as="targetPoint" />
          </mxGeometry>
        </mxCell>
        <mxCell id="3fiy4IHNfEnPSykZ1ssT-76" value="" style="endArrow=classic;html=1;strokeColor=#0000CC;" edge="1" parent="WIyWlLk6GJQsqaUBKTNV-1">
          <mxGeometry width="50" height="50" relative="1" as="geometry">
            <mxPoint x="410" y="420" as="sourcePoint" />
            <mxPoint x="590" y="420" as="targetPoint" />
          </mxGeometry>
        </mxCell>
        <mxCell id="3fiy4IHNfEnPSykZ1ssT-77" value="calculated result" style="text;html=1;strokeColor=none;fillColor=none;align=center;verticalAlign=middle;whiteSpace=wrap;rounded=0;" vertex="1" parent="WIyWlLk6GJQsqaUBKTNV-1">
          <mxGeometry x="240" y="420" width="100" height="13" as="geometry" />
        </mxCell>
        <mxCell id="3fiy4IHNfEnPSykZ1ssT-78" value="calculated result" style="text;html=1;strokeColor=none;fillColor=none;align=center;verticalAlign=middle;whiteSpace=wrap;rounded=0;" vertex="1" parent="WIyWlLk6GJQsqaUBKTNV-1">
          <mxGeometry x="451" y="420.5" width="100" height="13" as="geometry" />
        </mxCell>
      </root>
    </mxGraphModel>
  </diagram>
</mxfile>
